<svg id="visual" viewBox="0 0 900 600" width="900" height="600" xmlns="http://www.w3.org/2000/svg" xmlns:xlink="http://www.w3.org/1999/xlink" version="1.1"><rect x="0" y="0" width="900" height="600" fill="#002233"></rect><path d="M0 334L15 331.3C30 328.7 60 323.3 90 309.8C120 296.3 150 274.7 180 265.3C210 256 240 259 270 266C300 273 330 284 360 287.5C390 291 420 287 450 292.3C480 297.7 510 312.3 540 321C570 329.7 600 332.3 630 342.5C660 352.7 690 370.3 720 356.7C750 343 780 298 810 277.2C840 256.3 870 259.7 885 261.3L900 263L900 601L885 601C870 601 840 601 810 601C780 601 750 601 720 601C690 601 660 601 630 601C600 601 570 601 540 601C510 601 480 601 450 601C420 601 390 601 360 601C330 601 300 601 270 601C240 601 210 601 180 601C150 601 120 601 90 601C60 601 30 601 15 601L0 601Z" fill="#0066FF" stroke-linecap="round" stroke-linejoin="miter"></path></svg>